<svg width="75" height="71" viewBox="0 0 75 71" fill="none" xmlns="http://www.w3.org/2000/svg">
<path fill-rule="evenodd" clip-rule="evenodd" d="M1.23751e-06 35.5C2.13413e-06 15.8943 16.6294 6.94763e-07 37.1417 1.55175e-06C57.6541 2.40875e-06 74.2835 15.8943 74.2835 35.5C74.2835 55.1057 57.6541 71 37.1417 71C16.6294 71 3.40881e-07 55.1057 1.23751e-06 35.5ZM26.0229 42.6226C25.386 43.2105 24.5331 43.5358 23.6478 43.5284C22.7625 43.5211 21.9156 43.1816 21.2896 42.5833C20.6635 41.9849 20.3084 41.1755 20.3007 40.3293C20.2931 39.4831 20.6334 38.6679 21.2485 38.0592L34.7545 25.1501C35.3877 24.5451 36.2464 24.2052 37.1417 24.2052C38.0371 24.2052 38.8957 24.5451 39.5289 25.1501L53.035 38.0592C53.6501 38.6679 53.9904 39.4831 53.9827 40.3293C53.975 41.1755 53.6199 41.9849 52.9939 42.5833C52.3679 43.1816 51.521 43.5211 50.6357 43.5284C49.7504 43.5358 48.8974 43.2105 48.2606 42.6226L37.1417 31.9952L26.0229 42.6226Z" fill="white"/>
</svg>
