<svg width="21" height="20" viewBox="0 0 21 20" fill="none" xmlns="http://www.w3.org/2000/svg">
<path d="M19.6779 0H0.819912C0.366398 0 0 0.3575 0 0.8V19.2C0 19.6425 0.366398 20 0.819912 20H19.6779C20.1314 20 20.4978 19.6425 20.4978 19.2V0.8C20.4978 0.3575 20.1314 0 19.6779 0ZM18.858 18.4H14.1409V12.255H16.8056L17.2053 9.2375H14.1409V7.31C14.1409 6.435 14.3895 5.84 15.6731 5.84H17.3104V3.14C17.026 3.1025 16.0549 3.02 14.9224 3.02C12.56 3.02 10.9433 4.4275 10.9433 7.01V9.235H8.27343V12.2525H10.9458V18.4H1.63982V1.6H18.858V18.4Z" fill="white"/>
</svg>
