<svg width="21" height="20" viewBox="0 0 21 20" fill="none" xmlns="http://www.w3.org/2000/svg">
<path fill-rule="evenodd" clip-rule="evenodd" d="M14.4745 0.06C13.3816 0.0109091 13.0331 0 10.2491 0C7.46517 0 7.11671 0.0118182 6.02473 0.06C4.93276 0.108182 4.18739 0.278182 3.53518 0.524545C2.85223 0.776364 2.23264 1.17 1.7202 1.67909C1.19843 2.17818 0.795931 2.78182 0.538776 3.44909C0.285349 4.08545 0.112051 4.81273 0.0617371 5.87636C0.011425 6.94455 0.000244141 7.28455 0.000244141 10C0.000244141 12.7164 0.0123577 13.0564 0.0617371 14.1227C0.111118 15.1864 0.285349 15.9136 0.538776 16.55C0.795938 17.2174 1.19911 17.822 1.7202 18.3218C2.23264 18.8309 2.85223 19.2236 3.53518 19.4745C4.18739 19.7218 4.93276 19.8909 6.02287 19.94C7.11671 19.9891 7.46517 20 10.2491 20C13.0331 20 13.3816 19.9882 14.4745 19.94C15.5646 19.8918 16.31 19.7218 16.9622 19.4745C17.6461 19.2236 18.2658 18.8302 18.7781 18.3218C19.2995 17.8224 19.703 17.2181 19.9604 16.5509C20.2129 15.9145 20.3862 15.1873 20.4366 14.1236C20.4869 13.0555 20.498 12.7155 20.498 10C20.498 7.28364 20.4859 6.94364 20.4366 5.87818C20.3872 4.81273 20.2129 4.08545 19.9604 3.44909C19.7026 2.78189 19.2988 2.17756 18.7772 1.67818C18.2656 1.16955 17.6465 0.775858 16.9631 0.524545C16.3109 0.278182 15.5655 0.109091 14.4754 0.06H14.4745ZM6.10766 1.86C7.18845 1.81182 7.51269 1.80182 10.2491 1.80182C12.9856 1.80182 13.3098 1.81182 14.3906 1.86C15.3904 1.90455 15.9326 2.06727 16.2941 2.20455C16.7721 2.38636 17.114 2.60182 17.4728 2.95182C17.8128 3.27459 18.0745 3.66753 18.2386 4.10182C18.3793 4.45455 18.5461 4.98364 18.5918 5.95909C18.6411 7.01364 18.6514 7.33 18.6514 10C18.6514 12.67 18.6411 12.9864 18.5918 14.0409C18.5461 15.0164 18.3793 15.5455 18.2386 15.8982C18.0746 16.3318 17.8128 16.7255 17.4728 17.0482C17.142 17.38 16.7386 17.6355 16.2941 17.7955C15.9326 17.9327 15.3904 18.0955 14.3906 18.14C13.3098 18.1882 12.9865 18.1982 10.2491 18.1982C7.51176 18.1982 7.18845 18.1882 6.10766 18.14C5.10792 18.0955 4.56566 17.9327 4.20416 17.7955C3.72618 17.6136 3.38424 17.3982 3.02553 17.0482C2.68546 16.7255 2.42364 16.3318 2.25966 15.8982C2.11897 15.5455 1.95219 15.0164 1.90654 14.0409C1.85716 12.9864 1.84691 12.67 1.84691 10C1.84691 7.33 1.85716 7.01364 1.90654 5.95909C1.95219 4.98364 2.11897 4.45455 2.25966 4.10182C2.446 3.63545 2.66682 3.30182 3.02553 2.95182C3.35636 2.62006 3.75907 2.36474 4.20416 2.20455C4.56566 2.06727 5.10792 1.90455 6.10766 1.86ZM11.5582 13.0827C10.8271 13.3797 10.0131 13.4197 9.25507 13.1961C8.49707 12.9725 7.84215 12.499 7.40218 11.8566C6.9622 11.2142 6.76447 10.4426 6.84274 9.67373C6.92101 8.90485 7.27044 8.18634 7.83134 7.64091C8.1889 7.29225 8.62124 7.02528 9.09723 6.85922C9.57323 6.69317 10.081 6.63215 10.5841 6.68056C11.0872 6.72897 11.573 6.88562 12.0065 7.13921C12.4401 7.3928 12.8107 7.73704 13.0915 8.14714C13.3724 8.55723 13.5566 9.02299 13.6308 9.51087C13.705 9.99876 13.6675 10.4966 13.5208 10.9687C13.3742 11.4407 13.1221 11.8751 12.7827 12.2407C12.4434 12.6062 12.0252 12.8938 11.5582 13.0827ZM13.9742 6.36545C13.485 5.88816 12.9042 5.50955 12.2651 5.25124C11.626 4.99293 10.9409 4.85998 10.2491 4.85998C9.55735 4.85998 8.87232 4.99293 8.23318 5.25124C7.59405 5.50955 7.01331 5.88816 6.52414 6.36545C6.03496 6.84275 5.64693 7.40938 5.38219 8.033C5.11745 8.65662 4.98119 9.325 4.98119 10C4.98119 10.675 5.11745 11.3434 5.38219 11.967C5.64693 12.5906 6.03496 13.1573 6.52414 13.6345C7.51207 14.5985 8.852 15.14 10.2491 15.14C11.6463 15.14 12.9862 14.5985 13.9742 13.6345C14.9621 12.6706 15.5171 11.3632 15.5171 10C15.5171 8.63678 14.9621 7.3294 13.9742 6.36545ZM3.81284 5.62545C3.69161 5.51388 3.59457 5.37971 3.52745 5.23089C3.46032 5.08206 3.42449 4.92161 3.42206 4.75903C3.41963 4.59645 3.45066 4.43504 3.5133 4.28437C3.57595 4.1337 3.66895 3.99683 3.78679 3.88185C3.90462 3.76688 4.0449 3.67614 4.19932 3.61502C4.35374 3.55389 4.51916 3.52361 4.68579 3.52598C4.85242 3.52835 5.01686 3.56332 5.16939 3.62881C5.32192 3.69431 5.45943 3.789 5.57378 3.90727C5.79618 4.1373 5.91793 4.44284 5.91321 4.75903C5.90848 5.07522 5.77765 5.37716 5.54848 5.60077C5.31931 5.82437 5.00985 5.95203 4.68579 5.95664C4.36173 5.96125 4.04859 5.84245 3.81284 5.62545Z" fill="white"/>
</svg>
