<svg width="1332" height="73" viewBox="0 0 1332 73" fill="none" xmlns="http://www.w3.org/2000/svg">
<rect x="41" y="34" width="22" height="6" fill="white"/>
<rect x="68" y="34" width="22" height="6" fill="white"/>
<rect x="95" y="34" width="22" height="6" fill="white"/>
<rect x="122" y="34" width="22" height="6" fill="white"/>
<rect x="149" y="34" width="22" height="6" fill="white"/>
<rect x="176" y="34" width="22" height="6" fill="white"/>
<rect x="203" y="34" width="22" height="6" fill="white"/>
<rect x="230" y="34" width="22" height="6" fill="white"/>
<rect x="257" y="34" width="22" height="6" fill="white"/>
<rect x="284" y="34" width="22" height="6" fill="white"/>
<rect x="311" y="34" width="22" height="6" fill="white"/>
<rect x="338" y="34" width="22" height="6" fill="white"/>
<rect x="365" y="34" width="22" height="6" fill="white"/>
<rect x="392" y="34" width="22" height="6" fill="white"/>
<rect x="419" y="34" width="22" height="6" fill="white"/>
<rect x="446" y="34" width="22" height="6" fill="white"/>
<rect x="473" y="34" width="22" height="6" fill="white"/>
<rect x="500" y="34" width="22" height="6" fill="white"/>
<rect x="527" y="34" width="22" height="6" fill="white"/>
<rect x="554" y="34" width="22" height="6" fill="white"/>
<rect x="581" y="34" width="22" height="6" fill="white"/>
<rect x="608" y="34" width="22" height="6" fill="white"/>
<rect x="635" y="34" width="22" height="6" fill="white"/>
<rect x="662" y="34" width="22" height="6" fill="white"/>
<rect x="689" y="34" width="22" height="6" fill="white"/>
<rect x="716" y="34" width="22" height="6" fill="white"/>
<rect x="743" y="34" width="22" height="6" fill="white"/>
<rect x="770" y="34" width="22" height="6" fill="white"/>
<rect x="797" y="34" width="22" height="6" fill="white"/>
<rect x="824" y="34" width="22" height="6" fill="white"/>
<rect x="851" y="34" width="22" height="6" fill="white"/>
<rect x="878" y="34" width="22" height="6" fill="white"/>
<rect x="905" y="34" width="22" height="6" fill="white"/>
<rect x="932" y="34" width="22" height="6" fill="white"/>
<rect x="959" y="34" width="22" height="6" fill="white"/>
<rect x="986" y="34" width="22" height="6" fill="white"/>
<rect x="1013" y="34" width="22" height="6" fill="white"/>
<rect x="1040" y="34" width="22" height="6" fill="white"/>
<rect x="1067" y="34" width="22" height="6" fill="white"/>
<rect x="1094" y="34" width="22" height="6" fill="white"/>
<rect x="1121" y="34" width="22" height="6" fill="white"/>
<rect x="1148" y="34" width="22" height="6" fill="white"/>
<rect x="1175" y="34" width="22" height="6" fill="white"/>
<rect x="1202" y="34" width="22" height="6" fill="white"/>
<rect x="1229" y="34" width="22" height="6" fill="white"/>
<rect x="1256" y="34" width="22" height="6" fill="white"/>
<rect x="1283" y="34" width="22" height="6" fill="white"/>
<rect x="1310" y="34" width="22" height="6" fill="white"/>
<path d="M68.5591 16.4858L64.1385 13.14C63.4547 12.6072 62.6126 12.3179 61.7457 12.3179C60.8789 12.3179 60.0368 12.6072 59.353 13.14L20.2777 44.7328C17.8923 43.4728 15.129 43.127 12.5067 43.7605C9.88441 44.394 7.58363 45.963 6.0365 48.173C4.48937 50.383 3.80234 53.0818 4.10447 55.7625C4.40659 58.4433 5.67707 60.9215 7.67728 62.7317C9.67749 64.5419 12.2698 65.5595 14.9673 65.5934C17.6648 65.6273 20.2818 64.6752 22.3269 62.9159C24.372 61.1565 25.7044 58.7111 26.0738 56.0388C26.4433 53.3665 25.8243 50.6513 24.3332 48.4031L32.2416 42.0764L59.353 63.9156C60.0368 64.4483 60.8789 64.7376 61.7457 64.7376C62.6126 64.7376 63.4547 64.4483 64.1385 63.9156L68.5591 60.59L42.4616 38.5278L68.5591 16.4858ZM15.1069 60.3264C13.9598 60.3264 12.8386 59.9863 11.8849 59.349C10.9311 58.7118 10.1878 57.806 9.74886 56.7463C9.30992 55.6866 9.19507 54.5205 9.41884 53.3955C9.64262 52.2706 10.195 51.2372 11.006 50.4261C11.8171 49.6151 12.8505 49.0627 13.9754 48.8389C15.1004 48.6152 16.2665 48.73 17.3262 49.169C18.3859 49.6079 19.2917 50.3512 19.9289 51.305C20.5662 52.2587 20.9063 53.3799 20.9063 54.527C20.901 56.0634 20.2882 57.5354 19.2018 58.6219C18.1153 59.7083 16.6433 60.3211 15.1069 60.3264Z" fill="white"/>
<path d="M28.9971 30.9033L24.3332 27.1317C25.8243 24.8835 26.4433 22.1683 26.0738 19.496C25.7044 16.8237 24.372 14.3782 22.3269 12.6189C20.2818 10.8595 17.6648 9.90742 14.9673 9.94134C12.2698 9.97525 9.67749 10.9929 7.67728 12.8031C5.67707 14.6133 4.40659 17.0915 4.10447 19.7722C3.80234 22.4529 4.48937 25.1517 6.0365 27.3617C7.58363 29.5717 9.88441 31.1408 12.5067 31.7742C15.129 32.4077 17.8923 32.0619 20.2777 30.8019L24.6577 34.4722L28.9971 30.9033ZM15.1069 26.8478C13.9598 26.8478 12.8386 26.5076 11.8849 25.8704C10.9311 25.2331 10.1878 24.3274 9.74886 23.2677C9.30992 22.208 9.19507 21.0419 9.41884 19.9169C9.64262 18.7919 10.195 17.7586 11.006 16.9475C11.8171 16.1364 12.8505 15.5841 13.9754 15.3603C15.1004 15.1365 16.2665 15.2514 17.3262 15.6903C18.3859 16.1293 19.2917 16.8726 19.9289 17.8263C20.5662 18.78 20.9063 19.9013 20.9063 21.0483C20.9009 22.5829 20.2876 24.0528 19.2005 25.1361C18.1135 26.2193 16.6415 26.8275 15.1069 26.8275V26.8478Z" fill="white"/>
</svg>
